<mxfile host="app.diagrams.net" agent="Mozilla/5.0 (Macintosh; Intel Mac OS X 10_15_7) AppleWebKit/605.1.15 (KHTML, like Gecko) Version/18.5 Safari/605.1.15" version="27.1.6">
  <diagram name="Page-1" id="7F0s8tA2o--C-QU7P3Nw">
    <mxGraphModel dx="1663" dy="560" grid="1" gridSize="10" guides="1" tooltips="1" connect="1" arrows="1" fold="1" page="1" pageScale="1" pageWidth="850" pageHeight="1100" math="0" shadow="0">
      <root>
        <mxCell id="0" />
        <mxCell id="1" parent="0" />
        <mxCell id="zv9f7UW2KeGh1jNF6cNg-1" value="Claim" style="rounded=0;whiteSpace=wrap;html=1;" parent="1" vertex="1">
          <mxGeometry x="220" y="200" width="120" height="60" as="geometry" />
        </mxCell>
        <mxCell id="zv9f7UW2KeGh1jNF6cNg-2" value="Customer" style="rounded=0;whiteSpace=wrap;html=1;" parent="1" vertex="1">
          <mxGeometry x="570" y="200" width="120" height="60" as="geometry" />
        </mxCell>
        <mxCell id="zv9f7UW2KeGh1jNF6cNg-5" value="Money&amp;nbsp;&lt;div&gt;Amount&lt;/div&gt;" style="ellipse;whiteSpace=wrap;html=1;" parent="1" vertex="1">
          <mxGeometry x="60" y="80" width="90" height="50" as="geometry" />
        </mxCell>
        <mxCell id="zv9f7UW2KeGh1jNF6cNg-9" value="Claim Date" style="ellipse;whiteSpace=wrap;html=1;" parent="1" vertex="1">
          <mxGeometry x="160" y="45" width="100" height="60" as="geometry" />
        </mxCell>
        <mxCell id="zv9f7UW2KeGh1jNF6cNg-13" value="" style="endArrow=none;html=1;rounded=0;exitX=0.083;exitY=0;exitDx=0;exitDy=0;exitPerimeter=0;" parent="1" source="zv9f7UW2KeGh1jNF6cNg-1" target="zv9f7UW2KeGh1jNF6cNg-5" edge="1">
          <mxGeometry width="50" height="50" relative="1" as="geometry">
            <mxPoint x="180" y="170" as="sourcePoint" />
            <mxPoint x="230" y="120" as="targetPoint" />
          </mxGeometry>
        </mxCell>
        <mxCell id="zv9f7UW2KeGh1jNF6cNg-14" value="Pet" style="rounded=0;whiteSpace=wrap;html=1;" parent="1" vertex="1">
          <mxGeometry x="365" y="410" width="80" height="40" as="geometry" />
        </mxCell>
        <mxCell id="zv9f7UW2KeGh1jNF6cNg-15" value="" style="endArrow=none;html=1;rounded=0;" parent="1" source="zv9f7UW2KeGh1jNF6cNg-1" target="zv9f7UW2KeGh1jNF6cNg-2" edge="1">
          <mxGeometry width="50" height="50" relative="1" as="geometry">
            <mxPoint x="420" y="260" as="sourcePoint" />
            <mxPoint x="470" y="210" as="targetPoint" />
          </mxGeometry>
        </mxCell>
        <mxCell id="zv9f7UW2KeGh1jNF6cNg-17" value="" style="endArrow=none;html=1;rounded=0;exitX=0.333;exitY=0;exitDx=0;exitDy=0;entryX=0.5;entryY=1;entryDx=0;entryDy=0;exitPerimeter=0;" parent="1" source="zv9f7UW2KeGh1jNF6cNg-1" target="zv9f7UW2KeGh1jNF6cNg-9" edge="1">
          <mxGeometry width="50" height="50" relative="1" as="geometry">
            <mxPoint x="270" y="180" as="sourcePoint" />
            <mxPoint x="320" y="130" as="targetPoint" />
          </mxGeometry>
        </mxCell>
        <mxCell id="zv9f7UW2KeGh1jNF6cNg-19" value="Claim ID" style="ellipse;whiteSpace=wrap;html=1;" parent="1" vertex="1">
          <mxGeometry x="50" y="180" width="80" height="70" as="geometry" />
        </mxCell>
        <mxCell id="zv9f7UW2KeGh1jNF6cNg-21" value="" style="endArrow=none;html=1;rounded=0;exitX=1;exitY=0.5;exitDx=0;exitDy=0;entryX=-0.003;entryY=0.337;entryDx=0;entryDy=0;entryPerimeter=0;" parent="1" source="zv9f7UW2KeGh1jNF6cNg-19" target="zv9f7UW2KeGh1jNF6cNg-1" edge="1">
          <mxGeometry width="50" height="50" relative="1" as="geometry">
            <mxPoint x="160" y="250" as="sourcePoint" />
            <mxPoint x="210" y="200" as="targetPoint" />
          </mxGeometry>
        </mxCell>
        <mxCell id="zv9f7UW2KeGh1jNF6cNg-22" value="Policy" style="rounded=0;whiteSpace=wrap;html=1;" parent="1" vertex="1">
          <mxGeometry x="70" y="390" width="120" height="60" as="geometry" />
        </mxCell>
        <mxCell id="zv9f7UW2KeGh1jNF6cNg-23" value="Policy ID" style="ellipse;whiteSpace=wrap;html=1;" parent="1" vertex="1">
          <mxGeometry x="30" y="300" width="90" height="60" as="geometry" />
        </mxCell>
        <mxCell id="zv9f7UW2KeGh1jNF6cNg-24" value="" style="endArrow=none;html=1;rounded=0;entryX=0.206;entryY=-0.036;entryDx=0;entryDy=0;entryPerimeter=0;" parent="1" source="zv9f7UW2KeGh1jNF6cNg-23" target="zv9f7UW2KeGh1jNF6cNg-22" edge="1">
          <mxGeometry width="50" height="50" relative="1" as="geometry">
            <mxPoint x="50" y="510" as="sourcePoint" />
            <mxPoint x="100" y="470" as="targetPoint" />
          </mxGeometry>
        </mxCell>
        <mxCell id="zv9f7UW2KeGh1jNF6cNg-25" value="Customer ID" style="ellipse;whiteSpace=wrap;html=1;" parent="1" vertex="1">
          <mxGeometry x="520" y="280" width="90" height="60" as="geometry" />
        </mxCell>
        <mxCell id="zv9f7UW2KeGh1jNF6cNg-26" value="" style="endArrow=none;html=1;rounded=0;entryX=0.997;entryY=0.176;entryDx=0;entryDy=0;entryPerimeter=0;exitX=0.018;exitY=0.647;exitDx=0;exitDy=0;exitPerimeter=0;" parent="1" source="zv9f7UW2KeGh1jNF6cNg-2" target="zv9f7UW2KeGh1jNF6cNg-22" edge="1">
          <mxGeometry width="50" height="50" relative="1" as="geometry">
            <mxPoint x="220" y="580" as="sourcePoint" />
            <mxPoint x="270" y="530" as="targetPoint" />
          </mxGeometry>
        </mxCell>
        <mxCell id="VD68SMWjHamOjHzmVSUj-9" value="has" style="edgeLabel;html=1;align=center;verticalAlign=middle;resizable=0;points=[];" vertex="1" connectable="0" parent="zv9f7UW2KeGh1jNF6cNg-26">
          <mxGeometry x="0.1483" y="-2" relative="1" as="geometry">
            <mxPoint as="offset" />
          </mxGeometry>
        </mxCell>
        <mxCell id="zv9f7UW2KeGh1jNF6cNg-27" value="" style="endArrow=none;html=1;rounded=0;exitX=0.943;exitY=0.274;exitDx=0;exitDy=0;exitPerimeter=0;" parent="1" source="zv9f7UW2KeGh1jNF6cNg-25" target="zv9f7UW2KeGh1jNF6cNg-2" edge="1">
          <mxGeometry width="50" height="50" relative="1" as="geometry">
            <mxPoint x="450" y="320" as="sourcePoint" />
            <mxPoint x="500" y="270" as="targetPoint" />
          </mxGeometry>
        </mxCell>
        <mxCell id="zv9f7UW2KeGh1jNF6cNg-28" value="Name" style="ellipse;whiteSpace=wrap;html=1;" parent="1" vertex="1">
          <mxGeometry x="560" y="100" width="80" height="50" as="geometry" />
        </mxCell>
        <mxCell id="zv9f7UW2KeGh1jNF6cNg-29" value="" style="endArrow=none;html=1;rounded=0;entryX=0.617;entryY=1.039;entryDx=0;entryDy=0;entryPerimeter=0;" parent="1" source="zv9f7UW2KeGh1jNF6cNg-2" target="zv9f7UW2KeGh1jNF6cNg-28" edge="1">
          <mxGeometry width="50" height="50" relative="1" as="geometry">
            <mxPoint x="430" y="310" as="sourcePoint" />
            <mxPoint x="480" y="260" as="targetPoint" />
          </mxGeometry>
        </mxCell>
        <mxCell id="VD68SMWjHamOjHzmVSUj-3" value="Pet ID" style="ellipse;whiteSpace=wrap;html=1;" vertex="1" parent="1">
          <mxGeometry x="280" y="500" width="80" height="50" as="geometry" />
        </mxCell>
        <mxCell id="VD68SMWjHamOjHzmVSUj-5" value="" style="endArrow=none;html=1;rounded=0;exitX=0.767;exitY=0.057;exitDx=0;exitDy=0;exitPerimeter=0;entryX=0.25;entryY=1;entryDx=0;entryDy=0;" edge="1" parent="1" source="VD68SMWjHamOjHzmVSUj-3" target="zv9f7UW2KeGh1jNF6cNg-14">
          <mxGeometry width="50" height="50" relative="1" as="geometry">
            <mxPoint x="290" y="510" as="sourcePoint" />
            <mxPoint x="380" y="470" as="targetPoint" />
          </mxGeometry>
        </mxCell>
        <mxCell id="VD68SMWjHamOjHzmVSUj-13" value="Species" style="ellipse;whiteSpace=wrap;html=1;" vertex="1" parent="1">
          <mxGeometry x="370" y="510" width="80" height="50" as="geometry" />
        </mxCell>
        <mxCell id="VD68SMWjHamOjHzmVSUj-14" value="" style="endArrow=none;html=1;rounded=0;exitX=0.5;exitY=0;exitDx=0;exitDy=0;entryX=0.5;entryY=1;entryDx=0;entryDy=0;" edge="1" parent="1" source="VD68SMWjHamOjHzmVSUj-13" target="zv9f7UW2KeGh1jNF6cNg-14">
          <mxGeometry width="50" height="50" relative="1" as="geometry">
            <mxPoint x="370" y="530" as="sourcePoint" />
            <mxPoint x="420" y="480" as="targetPoint" />
          </mxGeometry>
        </mxCell>
        <mxCell id="VD68SMWjHamOjHzmVSUj-15" value="Status" style="ellipse;whiteSpace=wrap;html=1;" vertex="1" parent="1">
          <mxGeometry x="270" y="55" width="90" height="50" as="geometry" />
        </mxCell>
        <mxCell id="VD68SMWjHamOjHzmVSUj-16" value="" style="endArrow=none;html=1;rounded=0;exitX=0.615;exitY=-0.008;exitDx=0;exitDy=0;exitPerimeter=0;" edge="1" parent="1" source="zv9f7UW2KeGh1jNF6cNg-1" target="VD68SMWjHamOjHzmVSUj-15">
          <mxGeometry width="50" height="50" relative="1" as="geometry">
            <mxPoint x="289" y="235" as="sourcePoint" />
            <mxPoint x="190" y="160" as="targetPoint" />
          </mxGeometry>
        </mxCell>
        <mxCell id="VD68SMWjHamOjHzmVSUj-20" value="" style="endArrow=none;html=1;rounded=0;exitX=1;exitY=0.75;exitDx=0;exitDy=0;" edge="1" parent="1" source="zv9f7UW2KeGh1jNF6cNg-22" target="zv9f7UW2KeGh1jNF6cNg-14">
          <mxGeometry relative="1" as="geometry">
            <mxPoint x="180" y="439.58" as="sourcePoint" />
            <mxPoint x="340" y="439.58" as="targetPoint" />
          </mxGeometry>
        </mxCell>
        <mxCell id="VD68SMWjHamOjHzmVSUj-21" value="1" style="resizable=0;html=1;whiteSpace=wrap;align=right;verticalAlign=bottom;" connectable="0" vertex="1" parent="VD68SMWjHamOjHzmVSUj-20">
          <mxGeometry x="1" relative="1" as="geometry" />
        </mxCell>
        <mxCell id="VD68SMWjHamOjHzmVSUj-22" value="insurances" style="edgeLabel;html=1;align=center;verticalAlign=middle;resizable=0;points=[];" vertex="1" connectable="0" parent="VD68SMWjHamOjHzmVSUj-20">
          <mxGeometry x="-0.2403" y="-1" relative="1" as="geometry">
            <mxPoint x="18" y="-1" as="offset" />
          </mxGeometry>
        </mxCell>
        <mxCell id="VD68SMWjHamOjHzmVSUj-23" value="Start date" style="ellipse;whiteSpace=wrap;html=1;" vertex="1" parent="1">
          <mxGeometry x="-30" y="460" width="80" height="50" as="geometry" />
        </mxCell>
        <mxCell id="VD68SMWjHamOjHzmVSUj-24" value="End date" style="ellipse;whiteSpace=wrap;html=1;" vertex="1" parent="1">
          <mxGeometry x="40" y="500" width="80" height="50" as="geometry" />
        </mxCell>
        <mxCell id="VD68SMWjHamOjHzmVSUj-25" value="Status" style="ellipse;whiteSpace=wrap;html=1;" vertex="1" parent="1">
          <mxGeometry x="130" y="490" width="80" height="50" as="geometry" />
        </mxCell>
        <mxCell id="VD68SMWjHamOjHzmVSUj-29" value="" style="endArrow=none;html=1;rounded=0;" edge="1" parent="1" source="VD68SMWjHamOjHzmVSUj-23" target="zv9f7UW2KeGh1jNF6cNg-22">
          <mxGeometry width="50" height="50" relative="1" as="geometry">
            <mxPoint x="10" y="445" as="sourcePoint" />
            <mxPoint x="60" y="395" as="targetPoint" />
          </mxGeometry>
        </mxCell>
        <mxCell id="VD68SMWjHamOjHzmVSUj-30" value="" style="endArrow=none;html=1;rounded=0;entryX=0.25;entryY=1;entryDx=0;entryDy=0;exitX=0.5;exitY=0;exitDx=0;exitDy=0;" edge="1" parent="1" source="VD68SMWjHamOjHzmVSUj-24" target="zv9f7UW2KeGh1jNF6cNg-22">
          <mxGeometry width="50" height="50" relative="1" as="geometry">
            <mxPoint x="60" y="530" as="sourcePoint" />
            <mxPoint x="110" y="480" as="targetPoint" />
          </mxGeometry>
        </mxCell>
        <mxCell id="VD68SMWjHamOjHzmVSUj-31" value="" style="endArrow=none;html=1;rounded=0;entryX=0.706;entryY=1.019;entryDx=0;entryDy=0;entryPerimeter=0;" edge="1" parent="1" source="VD68SMWjHamOjHzmVSUj-25" target="zv9f7UW2KeGh1jNF6cNg-22">
          <mxGeometry width="50" height="50" relative="1" as="geometry">
            <mxPoint x="100" y="510" as="sourcePoint" />
            <mxPoint x="150" y="460" as="targetPoint" />
          </mxGeometry>
        </mxCell>
        <mxCell id="VD68SMWjHamOjHzmVSUj-32" value="Reason" style="ellipse;whiteSpace=wrap;html=1;" vertex="1" parent="1">
          <mxGeometry x="365" y="65" width="85" height="45" as="geometry" />
        </mxCell>
        <mxCell id="VD68SMWjHamOjHzmVSUj-33" value="" style="endArrow=none;html=1;rounded=0;exitX=0.75;exitY=0;exitDx=0;exitDy=0;entryX=0.3;entryY=0.989;entryDx=0;entryDy=0;entryPerimeter=0;" edge="1" parent="1" source="zv9f7UW2KeGh1jNF6cNg-1" target="VD68SMWjHamOjHzmVSUj-32">
          <mxGeometry width="50" height="50" relative="1" as="geometry">
            <mxPoint x="353" y="205" as="sourcePoint" />
            <mxPoint x="370" y="110" as="targetPoint" />
          </mxGeometry>
        </mxCell>
      </root>
    </mxGraphModel>
  </diagram>
</mxfile>
